<svg xmlns="http://www.w3.org/2000/svg" viewBox="0 0 960 960" role="img" aria-label="გიორგი ასლამაზიშვილის პორტრეტი">
  <defs>
    <linearGradient id="wall" x1="0" x2="0" y1="0" y2="1">
      <stop offset="0" stop-color="#8B6548"/>
      <stop offset="1" stop-color="#6B452E"/>
    </linearGradient>
    <linearGradient id="wood" x1="0" x2="0" y1="0" y2="1">
      <stop offset="0" stop-color="#7A5438"/>
      <stop offset="1" stop-color="#5B3723"/>
    </linearGradient>
    <linearGradient id="skin" x1="0" x2="0" y1="0" y2="1">
      <stop offset="0" stop-color="#D6B18D"/>
      <stop offset="1" stop-color="#BB936E"/>
    </linearGradient>
    <filter id="softBlur" x="-20%" y="-20%" width="140%" height="140%">
      <feGaussianBlur stdDeviation="8"/>
    </filter>
  </defs>
  <rect width="960" height="960" fill="#EEE7DD"/>
  <rect x="0" y="0" width="340" height="590" fill="#EDE3D4"/>
  <rect x="340" y="0" width="620" height="590" fill="url(#wall)"/>
  <rect x="520" y="78" width="102" height="34" rx="6" fill="#DDD3C4"/>
  <rect x="536" y="84" width="70" height="20" rx="4" fill="#7F7468"/>
  <g filter="url(#softBlur)" opacity=".85">
    <path d="M122 128c28-26 84-42 118-20 35 22 44 57 28 93-16 35-41 48-76 48-32 0-62-8-84-30-24-23-24-58 14-91Z" fill="#D0B24D"/>
    <path d="M147 146h63c13 0 24 11 24 24v42c0 13-11 24-24 24h-63c-13 0-24-11-24-24v-42c0-13 11-24 24-24Z" fill="#9B1B25"/>
    <path d="M162 162h35c8 0 14 6 14 14v27c0 8-6 14-14 14h-35c-8 0-14-6-14-14v-27c0-8 6-14 14-14Z" fill="#FFF5EA"/>
  </g>
  <g transform="translate(790 82)">
    <rect width="118" height="490" rx="8" fill="#FBFBFB"/>
    <rect x="42" width="34" height="490" fill="#D82029"/>
    <rect y="224" width="118" height="34" fill="#D82029"/>
  </g>
  <rect x="0" y="558" width="960" height="78" fill="#F7F1E8"/>
  <rect x="0" y="636" width="960" height="324" fill="url(#wood)"/>
  <rect x="0" y="636" width="960" height="16" fill="#4A2C1B" opacity=".32"/>
  <rect x="72" y="688" width="234" height="116" rx="6" fill="#6D452C"/>
  <rect x="286" y="578" width="460" height="144" rx="9" fill="#F3EEE7"/>
  <rect x="260" y="552" width="486" height="30" rx="8" fill="#FBF8F3"/>
  <rect x="706" y="690" width="28" height="90" rx="14" fill="#1B232E"/>
  <circle cx="720" cy="782" r="26" fill="#111923"/>
  <rect x="178" y="534" width="24" height="124" rx="12" fill="#202835"/>
  <ellipse cx="190" cy="664" rx="52" ry="18" fill="#1A212C"/>
  <g transform="translate(327 194)">
    <circle cx="156" cy="124" r="74" fill="url(#skin)"/>
    <rect x="128" y="170" width="54" height="56" rx="18" fill="#C79E78"/>
    <path d="M115 82c8-40 42-64 92-64 55 0 86 28 92 77-34-18-71-24-112-17-30 5-54 8-72 4Z" fill="#0F1014"/>
    <path d="M22 548c18-188 62-300 126-330 30 25 60 25 92 0 63 30 110 142 126 330H22Z" fill="#121A24"/>
    <path d="M120 222h74l26 86H102l18-86Z" fill="#FFFFFF"/>
    <path d="M190 222h74l18 86h-110l18-86Z" fill="#FFFFFF"/>
    <path d="M182 236h34l52 186H129l53-186Z" fill="#17181B"/>
    <path d="M56 316c18-16 42-18 72-8 18 6 31 13 40 22v218H34c0-97 8-174 22-232Z" fill="#0F141D"/>
    <path d="M302 314c21-16 46-19 78-10 18 6 32 15 41 28 14 58 22 134 22 228H292V338c6-8 10-14 10-24Z" fill="#0F141D"/>
    <path d="M39 450h125v112H10c2-54 12-92 29-112Z" fill="#0E131B"/>
    <path d="M307 438h122c18 21 29 64 33 124H310l-3-124Z" fill="#11171F"/>
    <path d="M54 448c28 0 50 14 66 42 14 22 18 56 12 102H38c-8-40-6-78 6-112 3-21 6-32 10-32Z" fill="#D1AE8A"/>
    <rect x="40" y="544" width="48" height="16" rx="8" fill="#C9A17C"/>
    <circle cx="92" cy="554" r="12" fill="#E9D2B0"/>
    <path d="M280 360h58l40 18-18 38h-66l-14-56Z" fill="#732A39"/>
    <circle cx="167" cy="124" r="7" fill="#1C222C"/>
    <circle cx="223" cy="124" r="7" fill="#1C222C"/>
    <path d="M176 156c10 8 31 8 42 0" fill="none" stroke="#8B5D42" stroke-linecap="round" stroke-width="5"/>
  </g>
</svg>
